<?xml version="1.0" encoding="utf-8"?>
<!-- Generator: Adobe Illustrator 26.0.1, SVG Export Plug-In . SVG Version: 6.00 Build 0)  -->
<svg version="1.1" id="Layer_1" xmlns="http://www.w3.org/2000/svg" xmlns:xlink="http://www.w3.org/1999/xlink" x="0px" y="0px"
	 viewBox="0 0 150 150" style="enable-background:new 0 0 150 150;" xml:space="preserve">
<style type="text/css">
	.st0{fill:#3D3D3B;stroke:#020203;stroke-width:0.5;stroke-miterlimit:10;}
	.st1{fill:#878787;stroke:#020203;stroke-miterlimit:10;}
	.st2{fill:#878787;stroke:#020203;stroke-width:0.25;stroke-miterlimit:10;}
</style>
<g>
	<path class="st0" d="M65.88,70.37H26.79c-2.26,0-4.1-1.83-4.1-4.1V27.19c0-2.26,1.83-4.1,4.1-4.1h39.09c2.26,0,4.1,1.83,4.1,4.1
		v39.09C69.98,68.54,68.14,70.37,65.88,70.37z"/>
	<path class="st0" d="M65.31,124.93H26.23c-2.26,0-4.1-1.83-4.1-4.1V81.75c0-2.26,1.83-4.1,4.1-4.1h39.09c2.26,0,4.1,1.83,4.1,4.1
		v39.09C69.41,123.1,67.58,124.93,65.31,124.93z"/>
	<path class="st0" d="M120.52,70.37H81.43c-2.26,0-4.1-1.83-4.1-4.1V27.19c0-2.26,1.83-4.1,4.1-4.1h39.09c2.26,0,4.1,1.83,4.1,4.1
		v39.09C124.61,68.54,122.78,70.37,120.52,70.37z"/>
	<path class="st1" d="M119.04,98.07c0.61-2.16,0.88-4.46,0.88-6.75c0-1.49-0.14-2.97-0.34-4.39l8.29-6.63l-6.41-11.14l-9.03,3.86
		c-1.82-1.89-3.98-3.44-6.35-4.73c-1.42-0.74-2.63-1.01-4.19-1.49l-1.76-9.32H87.24l-1.54,9.05c-0.47,0.14-0.88,0.34-1.35,0.47
		c-2.97,1.22-5.74,2.9-8.03,5.06l-9.79-3.84l-6.41,11.21l8.51,6.54h-0.07c-0.34,1.69-0.54,3.51-0.54,5.27c0,1.82,0.2,3.58,0.54,5.27
		l-9.12,7.94l6.41,11.14l10.54-5.24c2.77,2.5,6.08,4.46,9.72,5.6l1.45,10.94h12.89l1.25-10.88c3.44-1.08,6.62-2.84,9.32-5.13
		l8.47,3.99l6.41-11.14L119.04,98.07L119.04,98.07z M93.86,114.41c-12.76,0-23.09-10.33-23.09-23.09
		c0-12.76,10.33-23.09,23.09-23.09s23.09,10.33,23.09,23.09C116.95,104.01,106.62,114.41,93.86,114.41z"/>
	<circle class="st2" cx="93.86" cy="91.32" r="15.97"/>
</g>
</svg>
