<?xml version="1.0" encoding="utf-8"?>
<!-- Generator: Adobe Illustrator 26.0.1, SVG Export Plug-In . SVG Version: 6.00 Build 0)  -->
<svg version="1.1" id="Layer_1" xmlns="http://www.w3.org/2000/svg" xmlns:xlink="http://www.w3.org/1999/xlink" x="0px" y="0px"
	 viewBox="0 0 150 150" style="enable-background:new 0 0 150 150;" xml:space="preserve">
<style type="text/css">
	.st0{fill:none;stroke:#000000;stroke-width:2;stroke-miterlimit:10;}
	.st1{fill:#3C3C3B;stroke:#000000;stroke-width:0.5;stroke-miterlimit:10;}
</style>
<path class="st0" d="M75,53.5"/>
<path class="st1" d="M134.7,14.9H17.5c-6.8,0-12.4,5.1-12.4,11.4v108.1c0,6.3,5.5,11.4,12.4,11.4h117.2c6.8,0,12.4-5.1,12.4-11.4
	V26.4C147.1,20.1,141.5,14.9,134.7,14.9z M53.3,66.7c1.9-1.2,4.4-0.7,5.7,0.9L72.6,89l-0.1-67.1c0-1.7,1.6-3.1,3.5-3.1
	c1.9,0,3.5,1.4,3.5,3.1l0.1,67.4l13.6-21.6c1.3-1.7,3.8-2.1,5.7-0.9c1.9,1.2,2.3,3.4,1,5.1L81.1,97.5c-1.3,1.5-1.4,1.6-2.4,2.2
	c-0.3,0.2-0.5,0.3-0.8,0.4c-0.6,0.3-1.2,0.5-1.9,0.5c-0.9,0-1.7-0.3-2.3-0.8c-0.1,0-0.1-0.1-0.2-0.1c-1-0.6-1-0.6-2.4-2.3L52.2,71.8
	C51,70.1,51.4,67.8,53.3,66.7z M126.7,111.1c0,4.7-3.7,8.5-8.2,8.5H33.6c-4.5,0-8.2-3.8-8.2-8.5v-23c7.9,0,7.9,0,7.9,0v19.4
	c0,4,3,4.5,6.8,4.5l72.1,0.6c3.8,0,6.6-1.1,6.6-5.1V89.1l7.9,0.2V111.1z"/>
</svg>
