<?xml version="1.0" encoding="utf-8"?>
<!-- Generator: Adobe Illustrator 26.0.1, SVG Export Plug-In . SVG Version: 6.00 Build 0)  -->
<svg version="1.1" id="Layer_1" xmlns="http://www.w3.org/2000/svg" xmlns:xlink="http://www.w3.org/1999/xlink" x="0px" y="0px"
	 viewBox="0 0 150 150" style="enable-background:new 0 0 150 150;" xml:space="preserve">
<style type="text/css">
	.st0{fill:#3C3C3B;stroke:#000000;stroke-miterlimit:10;}
</style>
<path class="st0" d="M102.26,131.15H48.68c-1.84,0-3.33-1.49-3.33-3.33V48.47c0-1.84,1.49-3.33,3.33-3.33h53.58
	c1.84,0,3.33,1.49,3.33,3.33v79.35C105.59,129.66,104.1,131.15,102.26,131.15z"/>
<path class="st0" d="M36.82,94.74H10.54c-1.84,0-3.33-1.49-3.33-3.33V39.41c0-1.84,1.49-3.33,3.33-3.33h26.28
	c1.84,0,3.33,1.49,3.33,3.33v52.01C40.15,93.25,38.66,94.74,36.82,94.74z"/>
<path class="st0" d="M140.4,94.74h-26.28c-1.84,0-3.33-1.49-3.33-3.33V39.41c0-1.84,1.49-3.33,3.33-3.33h26.28
	c1.84,0,3.33,1.49,3.33,3.33v52.01C143.73,93.25,142.24,94.74,140.4,94.74z"/>
</svg>
