<?xml version="1.0" encoding="utf-8"?>
<!-- Generator: Adobe Illustrator 26.0.1, SVG Export Plug-In . SVG Version: 6.00 Build 0)  -->
<svg version="1.1" id="Layer_1" xmlns="http://www.w3.org/2000/svg" xmlns:xlink="http://www.w3.org/1999/xlink" x="0px" y="0px"
	 viewBox="0 0 150 150" style="enable-background:new 0 0 150 150;" xml:space="preserve">
<style type="text/css">
	.st0{fill:#3C3C3B;stroke:#000000;stroke-miterlimit:10;}
</style>
<path class="st0" d="M61.3,80.8l15.8-16.3c0.5-0.5,0.8-1.2,1-2l0.4-2.6c0.2-1.7,0.7-3.3,1.5-4.8l1.2-2.3c0.5-1,1.1-1.8,1.9-2.6
	l4.1-3.7l-3.2,9.2l0.6,5.2l5.4,4l7.1-2.7l3.5-9.4l0.5,6.4c0.3,3.5-1.6,6.8-4.6,8.5l-2.1,1.1c-1.8,1-3.8,1.7-5.8,2.1l-3.1,0.6
	L68.1,87.2l-5,4.6c-0.6,0.6-1.6,0.8-2.4,0.5l-5.5-2.1c-0.7-0.3-1-1.2-0.5-1.8L61.3,80.8z"/>
<path class="st0" d="M115.2,81.5c0.9-3.2,1.3-6.6,1.3-10c0-2.2-0.2-4.4-0.5-6.5l7.1-7.2l-9.5-16.5l-8.2,3.1c-2.7-2.8-5.9-5.1-9.4-7
	c-2.1-1.1-3.9-1.5-6.2-2.2L87.6,26H68.5l-2.7,8.8c-0.7,0.2-1.3,0.5-2,0.7c-4.4,1.8-8.5,4.3-11.9,7.5l-9-2.6L33.4,57l7.1,6.6l-0.1,0
	c-0.5,2.5-0.8,5.2-0.8,7.8c0,2.7,0.3,5.3,0.8,7.8l-7.4,7.5l9.5,16.5l9.5-3.5c4.1,3.7,9,6.6,14.4,8.3l1.7,10.5h19.1l2.3-10.4
	c5.1-1.6,9.8-4.2,13.8-7.6l10,3.5l9.5-16.5L115.2,81.5L115.2,81.5z M77.9,105.7c-18.9,0-34.2-15.3-34.2-34.2
	c0-18.9,15.3-34.2,34.2-34.2s34.2,15.3,34.2,34.2C112.1,90.3,96.8,105.7,77.9,105.7z"/>
</svg>
