<?xml version="1.0" encoding="utf-8"?>
<!-- Generator: Adobe Illustrator 26.0.1, SVG Export Plug-In . SVG Version: 6.00 Build 0)  -->
<svg version="1.1" id="Layer_1" xmlns="http://www.w3.org/2000/svg" xmlns:xlink="http://www.w3.org/1999/xlink" x="0px" y="0px"
	 viewBox="0 0 150 150" style="enable-background:new 0 0 150 150;" xml:space="preserve">
<style type="text/css">
	.st0{fill:#3C3C3B;stroke:#000000;stroke-width:0.75;stroke-miterlimit:10;}
</style>
<path class="st0" d="M111.9,89.7c-0.8-4.8-4.2-9.3-9.1-12.8L87.1,92.6l-1.3,3c-0.9,2-2.5,3.7-4.4,4.7l-2.2,1.2
	c-2.3,1.2-5.1,1.4-7.6,0.5l-0.2-0.1c-2.3-0.9-4.1-2.8-4.8-5.2l-0.5-1.6l4-0.7c1.2-0.2,2.3-1,2.9-2c1.6-2.6,3.8-4.8,6.5-6.3l2.4-1.3
	l12.8-14.2c-3.8-3.1-13.2-3.2-19.2-2.5C59.7,69.9,41.3,77.5,44,97.6c2.9,21.8,30.2,22.3,37,21.3c0.7-0.1,5.4-0.7,6.1-2.5
	c0.5-1.2-1.7-2.6-3.8-7.3c-1.7-3.6-1.3-4.6-1-4.9c0.9-1.5,3.5-1.6,4.4-1.6c2.7,0,4.6,1.1,5.7,1.6c2.4,1,15.4-1,18.7-6.8
	C111.6,95.7,112.4,93,111.9,89.7z M72.1,70.8c1.9,0,3.4,1.1,3.4,2.5s-1.5,2.5-3.4,2.5s-3.4-1.1-3.4-2.5S70.2,70.8,72.1,70.8z
	 M54.7,82.5c2.8-0.3,5.2,1,5.4,2.7c0.2,1.8-2,3.4-4.8,3.7c-2.8,0.3-5.2-1-5.4-2.7C49.8,84.4,51.9,82.8,54.7,82.5z M54.5,102.3
	c-3.5,0-6.3-2.2-6.3-4.9c0-2.7,2.8-4.9,6.3-4.9s6.3,2.2,6.3,4.9C60.9,100.2,58,102.3,54.5,102.3z M62.7,81.1c-2.1,0.3-4-0.7-4.2-2.3
	c-0.2-1.5,1.3-3,3.4-3.3c2.1-0.3,4,0.7,4.2,2.3C66.4,79.3,64.8,80.8,62.7,81.1z"/>
<path class="st0" d="M38.6,97.5H37c-1.7,0-3-1.3-3-3v-34c0-1.7,1.3-3,3-3h53.4c1.7,0,3,1.3,3,3v4.3l-8.9-1.4c-8-0.7-14.5-0.6-22,2.3
	l-5,2.2c-5,1.9-10.2,6.1-13.4,10.4l-2.7,4.1c-1.8,2.4-2.2,5.9-2.3,8.8L38.6,97.5z"/>
<path class="st0" d="M92.2,82.7L114.6,62l-0.1-0.2c-0.6-1.6-2-2.9-3.7-3.3l0,0L90.3,80.6L92.2,82.7z"/>
<polygon class="st0" points="88.3,81.9 84,87 86.2,89.1 90.3,84.5 "/>
<path class="st0" d="M80.4,88.6l-1.8,1.2c-1.2,0.7-2.3,3.4-3.1,4.5l0,0c-1,1.5-2.6,2.6-4.4,2.9L70,97.4l2.9,2.1
	c0.7,0.5,1.6,0.7,2.4,0.5l0,0c2.7-0.6,5.1-2.1,6.9-4.2l0,0c1.2-1.5,1.9-3.3,1.9-5.2l0,0l0,0C83,89.7,81.5,87.9,80.4,88.6z"/>
<path class="st0" d="M39.4,54.7v-7.2c0-2.1,2-3.7,4.4-3.7h49.8c2.4,0,4.4,1.7,4.4,3.7v7.2v13.1l-1.9,2l-0.3-15.6"/>
<path class="st0" d="M43.7,41.7v-7.2c0-2.1,2-3.7,4.4-3.7H98c2.4,0,4.4,1.7,4.4,3.7v7.2v13.1l-1.9,2l-0.3-15.6"/>
</svg>
