<?xml version="1.0" encoding="utf-8"?>
<!-- Generator: Adobe Illustrator 26.0.1, SVG Export Plug-In . SVG Version: 6.00 Build 0)  -->
<svg version="1.1" id="Layer_1" xmlns="http://www.w3.org/2000/svg" xmlns:xlink="http://www.w3.org/1999/xlink" x="0px" y="0px"
	 viewBox="0 0 150 150" style="enable-background:new 0 0 150 150;" xml:space="preserve">
<style type="text/css">
	.st0{fill:#3C3C3B;stroke:#000000;stroke-miterlimit:10;}
</style>
<path class="st0" d="M75,30.8c-24.4,0-44.2,19.8-44.2,44.2s19.8,44.2,44.2,44.2s44.2-19.8,44.2-44.2S99.4,30.8,75,30.8z M106.8,78.9
	H82.7c-2.1,0-3.9,1.7-3.9,3.9v24.1c0,2.1-1.7,3.9-3.9,3.9s-3.9-1.7-3.9-3.9V82.7c0-2.1-1.7-3.9-3.9-3.9H43.2c-2.1,0-3.9-1.7-3.9-3.9
	c0-2.1,1.7-3.9,3.9-3.9h24.1c2.1,0,3.9-1.7,3.9-3.9V43.2c0-2.1,1.7-3.9,3.9-3.9S79,41,79,43.2v24.1c0,2.1,1.7,3.9,3.9,3.9H107
	c2.1,0,3.9,1.7,3.9,3.9C110.7,77.1,108.9,78.9,106.8,78.9z"/>
</svg>
