<?xml version="1.0" encoding="utf-8"?>
<!-- Generator: Adobe Illustrator 26.0.1, SVG Export Plug-In . SVG Version: 6.00 Build 0)  -->
<svg version="1.1" id="Layer_1" xmlns="http://www.w3.org/2000/svg" xmlns:xlink="http://www.w3.org/1999/xlink" x="0px" y="0px"
	 viewBox="0 0 150 150" style="enable-background:new 0 0 150 150;" xml:space="preserve">
<style type="text/css">
	.st0{fill:#3D3D3B;stroke:#020203;stroke-width:0.75;stroke-miterlimit:10;}
	.st1{fill:#9D9D9C;stroke:#020203;stroke-width:0.75;stroke-miterlimit:10;}
</style>
<path class="st0" d="M92.4,126.48H14.83c-1.35,0-2.44-1.09-2.44-2.44v-22.12c0-1.35,1.09-2.44,2.44-2.44H92.4
	c1.35,0,2.44,1.09,2.44,2.44v22.12C94.84,125.39,93.75,126.48,92.4,126.48z"/>
<path class="st0" d="M92.4,90.23H14.83c-1.35,0-2.44-1.09-2.44-2.44V65.67c0-1.35,1.09-2.44,2.44-2.44H92.4
	c1.35,0,2.44,1.09,2.44,2.44v22.12C94.84,89.14,93.75,90.23,92.4,90.23z"/>
<path class="st0" d="M92.4,53.97H14.83c-1.35,0-2.44-1.09-2.44-2.44V29.42c0-1.35,1.09-2.44,2.44-2.44H92.4
	c1.35,0,2.44,1.09,2.44,2.44v22.12C94.84,52.88,93.75,53.97,92.4,53.97z"/>
<path class="st1" d="M76.49,80.52l72.63-67.64l-0.32-0.65c-1.95-5.23-6.48-9.48-12-10.78l0,0L70.33,73.66L76.49,80.52z"/>
<polygon class="st1" points="70.33,73.66 49.91,94.57 57.04,101.43 76.49,80.52 "/>
<path class="st1" d="M41.1,99.8l-5.84,3.92c-3.89,2.29-7.46,11.11-10.05,14.7l0,0c-3.24,4.9-8.43,8.5-14.27,9.48l-3.57,0.65
	l9.4,6.86c2.27,1.63,5.19,2.29,7.78,1.63l0,0c8.75-1.96,16.54-6.86,22.37-13.72l0,0c3.89-4.9,6.16-10.78,6.16-16.99l0,0l0,0
	C49.53,103.39,44.67,97.51,41.1,99.8z"/>
</svg>
