<?xml version="1.0" encoding="utf-8"?>
<!-- Generator: Adobe Illustrator 26.0.1, SVG Export Plug-In . SVG Version: 6.00 Build 0)  -->
<svg version="1.1" id="Layer_1" xmlns="http://www.w3.org/2000/svg" xmlns:xlink="http://www.w3.org/1999/xlink" x="0px" y="0px"
	 viewBox="0 0 150 150" style="enable-background:new 0 0 150 150;" xml:space="preserve">
<style type="text/css">
	.st0{fill:#3C3C3B;stroke:#000000;stroke-width:0.25;stroke-miterlimit:10;}
</style>
<g>
	<path class="st0" d="M127.89,63.01H21.27c-1.84,0-3.33-1.49-3.33-3.33V35.76c0-1.84,1.49-3.33,3.33-3.33h106.61
		c1.84,0,3.33,1.49,3.33,3.33v23.92C131.21,61.52,129.72,63.01,127.89,63.01z"/>
	<path class="st0" d="M69.76,101.72H21.27c-1.84,0-3.33-1.49-3.33-3.33V72.04c0-1.84,1.49-3.33,3.33-3.33h48.49
		c1.84,0,3.33,1.49,3.33,3.33v26.35C73.09,100.23,71.6,101.72,69.76,101.72z"/>
	<path class="st0" d="M127.89,82.36H82.82c-1.84,0-3.33-1.49-3.33-3.33v-4.36c0-1.84,1.49-3.33,3.33-3.33h45.06
		c1.84,0,3.33,1.49,3.33,3.33v4.36C131.21,80.87,129.72,82.36,127.89,82.36z"/>
	<path class="st0" d="M128.73,117.57H22.11c-1.84,0-3.33-1.49-3.33-3.33v-3.03c0-1.84,1.49-3.33,3.33-3.33h106.61
		c1.84,0,3.33,1.49,3.33,3.33v3.03C132.05,116.08,130.56,117.57,128.73,117.57z"/>
	<path class="st0" d="M127.89,99.09H82.82c-1.84,0-3.33-1.49-3.33-3.33v-4.36c0-1.84,1.49-3.33,3.33-3.33h45.06
		c1.84,0,3.33,1.49,3.33,3.33v4.36C131.21,97.6,129.72,99.09,127.89,99.09z"/>
</g>
</svg>
