<?xml version="1.0" encoding="utf-8"?>
<!-- Generator: Adobe Illustrator 26.0.1, SVG Export Plug-In . SVG Version: 6.00 Build 0)  -->
<svg version="1.1" id="Layer_1" xmlns="http://www.w3.org/2000/svg" xmlns:xlink="http://www.w3.org/1999/xlink" x="0px" y="0px"
	 viewBox="0 0 150 150" style="enable-background:new 0 0 150 150;" xml:space="preserve">
<style type="text/css">
	.st0{fill:#3D3D3B;stroke:#020203;stroke-width:0.75;stroke-miterlimit:10;}
	.st1{stroke:#000000;stroke-miterlimit:10;}
</style>
<path class="st0" d="M118.7,35.83c-14.82-3.35-21.76-5.28-31.65-4.12C61,34.68,30.67,47.21,35.12,80.34
	c4.78,35.94,49.79,36.76,61,35.11c1.15-0.16,8.9-1.15,10.06-4.12c0.82-1.98-2.8-4.29-6.26-12.03c-2.8-5.93-2.14-7.58-1.65-8.08
	c1.48-2.47,5.77-2.64,7.25-2.64c4.45,0,7.58,1.81,9.4,2.64c3.96,1.65,25.39-1.65,30.83-11.21c0.82-2.8,2.14-7.25,1.32-12.69
	C145.83,55.38,143.03,50.82,118.7,35.83 M81.44,36.16c3.13,0,5.6,1.81,5.6,4.12c0,2.31-2.47,4.12-5.6,4.12s-5.6-1.81-5.6-4.12
	C75.84,37.97,78.31,36.16,81.44,36.16z M52.76,55.45c4.62-0.49,8.57,1.65,8.9,4.45c0.33,2.97-3.3,5.6-7.91,6.1
	c-4.62,0.49-8.57-1.65-8.9-4.45C44.68,58.58,48.14,55.94,52.76,55.45z M52.43,88.09c-5.77,0-10.39-3.63-10.39-8.08
	c0-4.45,4.62-8.08,10.39-8.08s10.39,3.63,10.39,8.08C62.98,84.63,58.2,88.09,52.43,88.09z M65.95,53.14
	c-3.46,0.49-6.59-1.15-6.92-3.79c-0.33-2.47,2.14-4.95,5.6-5.44s6.59,1.15,6.92,3.79C72.05,50.17,69.41,52.65,65.95,53.14z"/>
<path class="st1" d="M26.71,66.08c1.86,0.34-0.06,11.65,2.36,18.71c4.24,12.32,10.86,9.81,10.72,20.17
	c-0.1,7.14-6.47,15.3-13.81,15.81c-8.71,0.6-13.81-4.72-15.62-12.17c-0.43-1.76-2.18-5.48,0.91-13.81
	c1.82-4.91,3.83-10.05,9.63-19.98C24.09,69.33,25.38,65.84,26.71,66.08z"/>
</svg>
